<svg width="26" height="20" viewBox="0 0 26 20" fill="none" xmlns="http://www.w3.org/2000/svg">
<path d="M23.625 0.625H2.375C1.87772 0.625 1.40081 0.822544 1.04917 1.17417C0.697544 1.52581 0.5 2.00272 0.5 2.5C0.5 2.99728 0.697544 3.47419 1.04917 3.82583C1.40081 4.17746 1.87772 4.375 2.375 4.375H23.625C24.1223 4.375 24.5992 4.17746 24.9508 3.82583C25.3025 3.47419 25.5 2.99728 25.5 2.5C25.5 2.00272 25.3025 1.52581 24.9508 1.17417C24.5992 0.822544 24.1223 0.625 23.625 0.625ZM20.0837 8.125H2.375C1.87772 8.125 1.40081 8.32254 1.04917 8.67417C0.697544 9.02581 0.5 9.50272 0.5 10C0.5 10.4973 0.697544 10.9742 1.04917 11.3258C1.40081 11.6775 1.87772 11.875 2.375 11.875H20.0837C20.581 11.875 21.0579 11.6775 21.4096 11.3258C21.7612 10.9742 21.9587 10.4973 21.9587 10C21.9587 9.50272 21.7612 9.02581 21.4096 8.67417C21.0579 8.32254 20.581 8.125 20.0837 8.125ZM13 15.625H2.375C1.87772 15.625 1.40081 15.8225 1.04917 16.1742C0.697544 16.5258 0.5 17.0027 0.5 17.5C0.5 17.9973 0.697544 18.4742 1.04917 18.8258C1.40081 19.1775 1.87772 19.375 2.375 19.375H13C13.4973 19.375 13.9742 19.1775 14.3258 18.8258C14.6775 18.4742 14.875 17.9973 14.875 17.5C14.875 17.0027 14.6775 16.5258 14.3258 16.1742C13.9742 15.8225 13.4973 15.625 13 15.625Z" fill="#0861C5"/>
</svg>
