<svg width="40" height="40" viewBox="0 0 40 40" fill="none" xmlns="http://www.w3.org/2000/svg">
<rect x="0.384615" y="0.384615" width="39.2308" height="39.2308" rx="19.6154" stroke="#E1E1E1" stroke-width="0.769231"/>
<path d="M25.6252 18.0918V17.5043C25.6252 14.2801 23.1051 11.6667 20.0001 11.6667C16.8951 11.6667 14.3751 14.2801 14.3751 17.5043V18.0918C14.3761 18.7931 14.1759 19.48 13.7984 20.071L12.8751 21.5085C12.0325 22.821 12.6759 24.6052 14.1417 25.0202C17.9719 26.106 22.0284 26.106 25.8585 25.0202C27.3244 24.6052 27.9677 22.821 27.1252 21.5093L26.2018 20.0718C25.824 19.4809 25.6236 18.794 25.6243 18.0926L25.6252 18.0918Z" stroke="#0861C5" stroke-width="1.25001"/>
<path d="M16.25 25.8335C16.7958 27.2902 18.2684 28.3335 20 28.3335C21.7317 28.3335 23.2042 27.2902 23.7501 25.8335" stroke="#0861C5" stroke-width="1.25001" stroke-linecap="round"/>
<circle cx="24.1664" cy="15.0001" r="3.33336" fill="#EDFAFF"/>
<circle cx="24.1666" cy="14.9998" r="2.22224" fill="#FC2E1C"/>
</svg>
